<svg width="45" height="45" viewBox="0 0 45 45" fill="none" xmlns="http://www.w3.org/2000/svg">
<path d="M0.516602 22.2579C0.516602 26.6172 1.80929 30.8786 4.23119 34.5032C6.6531 38.1279 10.0954 40.9529 14.1229 42.6212C18.1504 44.2894 22.5821 44.7259 26.8577 43.8754C31.1332 43.025 35.0606 40.9258 38.1431 37.8433C41.2256 34.7608 43.3248 30.8334 44.1752 26.5579C45.0257 22.2823 44.5892 17.8506 42.921 13.8231C41.2527 9.79564 38.4277 6.35329 34.803 3.93139C31.1784 1.50948 26.917 0.216797 22.5577 0.216797C16.712 0.216797 11.1058 2.53897 6.97228 6.67248C2.83878 10.806 0.516602 16.4122 0.516602 22.2579ZM9.96278 20.6835H29.0913L20.3063 11.8561L22.5577 9.66297L35.1526 22.2579L22.5577 34.8528L20.3063 32.6062L29.0913 23.8322H9.96278V20.6835Z" fill="#D5963D"/>
</svg>
