<svg width="21" height="30" viewBox="0 0 21 30" fill="none" xmlns="http://www.w3.org/2000/svg">
<path d="M10.4774 5.36934C7.5193 5.36934 5.11323 7.7754 5.11323 10.7335C5.11323 11.2275 5.51331 11.6276 6.00727 11.6276C6.50122 11.6276 6.9013 11.2275 6.9013 10.7335C6.9013 8.76107 8.50609 7.1574 10.4774 7.1574C10.9714 7.1574 11.3715 6.75732 11.3715 6.26337C11.3715 5.76942 10.9714 5.36934 10.4774 5.36934ZM6.01062 26.5562C6.01062 26.7323 6.06258 26.9038 6.16037 27.0502L7.52992 29.1087C7.69587 29.3579 7.97526 29.5077 8.2742 29.5077H12.6801C12.9796 29.5077 13.259 29.3579 13.4244 29.1087L14.7939 27.0502C14.8912 26.9038 14.9431 26.7317 14.9437 26.5562L14.9465 24.1435H6.00838L6.01062 26.5562ZM10.4774 0.89917C4.76232 0.89917 0.643066 5.53529 0.643066 10.7335C0.643066 13.2128 1.56224 15.4747 3.07707 17.203C4.00687 18.2641 5.46526 20.4886 6.00615 22.3526V22.356H8.68825V22.3493C8.68769 22.0827 8.64802 21.8179 8.56811 21.5631C8.25576 20.5679 7.293 17.9439 5.09423 15.435C3.94652 14.1258 3.33299 12.4652 3.32796 10.7335C3.31678 6.61875 6.66215 3.58127 10.4774 3.58127C14.4212 3.58127 17.6297 6.78973 17.6297 10.7335C17.6297 12.464 17.0016 14.1337 15.8612 15.435C13.6758 17.9277 12.7086 20.5461 12.3912 21.5513C12.3093 21.8098 12.2675 22.0793 12.2672 22.3504V22.356H14.9493V22.3532C15.4902 20.4886 16.9486 18.2641 17.8784 17.2035C19.3926 15.4747 20.3118 13.2128 20.3118 10.7335C20.3118 5.30228 15.9087 0.89917 10.4774 0.89917Z" fill="#D5963D"/>
</svg>
