<svg width="24" height="23" viewBox="0 0 24 23" fill="none" xmlns="http://www.w3.org/2000/svg">
<path d="M7.87709 9.30803C7.87709 9.08468 7.96581 8.87049 8.12374 8.71256C8.28167 8.55464 8.49586 8.46592 8.7192 8.46592H15.4561C15.6794 8.46592 15.8936 8.55464 16.0515 8.71256C16.2095 8.87049 16.2982 9.08468 16.2982 9.30803C16.2982 9.53137 16.2095 9.74556 16.0515 9.90349C15.8936 10.0614 15.6794 10.1501 15.4561 10.1501H8.7192C8.49586 10.1501 8.28167 10.0614 8.12374 9.90349C7.96581 9.74556 7.87709 9.53137 7.87709 9.30803ZM7.87709 12.6756C7.87709 12.4523 7.96581 12.2381 8.12374 12.0802C8.28167 11.9222 8.49586 11.8335 8.7192 11.8335H13.7719C13.9952 11.8335 14.2094 11.9222 14.3673 12.0802C14.5253 12.2381 14.614 12.4523 14.614 12.6756C14.614 12.899 14.5253 13.1132 14.3673 13.2711C14.2094 13.429 13.9952 13.5177 13.7719 13.5177H8.7192C8.49586 13.5177 8.28167 13.429 8.12374 13.2711C7.96581 13.1132 7.87709 12.899 7.87709 12.6756ZM12.0876 0.0456543C6.04129 0.0456543 1.14021 4.94674 1.14021 10.9914C1.14021 12.7388 1.55032 14.3918 2.27958 15.8588L0.851364 20.1426C0.421045 21.4327 1.61937 22.6748 2.9238 22.29L7.51667 20.9401C8.95025 21.5993 10.5098 21.9398 12.0876 21.938C18.134 21.938 23.0351 17.0369 23.0351 10.9914C23.0351 4.94674 18.134 0.0456543 12.0876 0.0456543ZM2.82443 10.9914C2.82443 5.87643 6.97182 1.72988 12.0876 1.72988C17.2043 1.72988 21.3509 5.87643 21.3509 10.9914C21.3509 16.1072 17.2043 20.2538 12.0876 20.2538C10.6047 20.2538 9.2051 19.906 7.96383 19.2879L7.66825 19.1405L2.44885 20.6748L4.10528 15.7072L3.9318 15.3872C3.20245 14.037 2.82181 12.526 2.82443 10.9914Z" fill="#D5963D"/>
</svg>
