<svg width="26" height="22" viewBox="0 0 26 22" fill="none" xmlns="http://www.w3.org/2000/svg">
<path d="M0.554443 6.92525V17.3344C0.554443 18.4471 0.996471 19.5142 1.78329 20.301C2.5701 21.0879 3.63725 21.5299 4.74997 21.5299H21.5321C22.6448 21.5299 23.712 21.0879 24.4988 20.301C25.2856 19.5142 25.7276 18.4471 25.7276 17.3344V4.74778C25.7276 3.63505 25.2856 2.5679 24.4988 1.78109C23.712 0.994274 22.6448 0.552246 21.5321 0.552246H4.74997C3.63725 0.552246 2.5701 0.994274 1.78329 1.78109C0.996471 2.5679 0.554443 3.63505 0.554443 4.74778V6.92525ZM4.74997 2.65001H21.5321C22.0884 2.65001 22.622 2.87102 23.0154 3.26443C23.4088 3.65784 23.6299 4.19141 23.6299 4.74778V6.30012L13.141 11.9473L2.65221 6.30012V4.74778C2.65221 4.19141 2.87322 3.65784 3.26663 3.26443C3.66004 2.87102 4.19361 2.65001 4.74997 2.65001ZM2.65221 8.68318L12.6439 14.0618C12.7967 14.1441 12.9675 14.1872 13.141 14.1872C13.3146 14.1872 13.4854 14.1441 13.6382 14.0618L23.6299 8.68318V17.3344C23.6299 17.8907 23.4088 18.4243 23.0154 18.8177C22.622 19.2111 22.0884 19.4321 21.5321 19.4321H4.74997C4.19361 19.4321 3.66004 19.2111 3.26663 18.8177C2.87322 18.4243 2.65221 17.8907 2.65221 17.3344V8.68318Z" fill="#D5963D"/>
</svg>
