<svg width="25" height="25" viewBox="0 0 25 25" fill="none" xmlns="http://www.w3.org/2000/svg">
<path d="M0.762208 4.08249C0.762208 3.04209 1.1755 2.04431 1.91117 1.30863C2.64685 0.572964 3.64463 0.159668 4.68503 0.159668H16.8058C17.8462 0.159668 18.844 0.572964 19.5797 1.30863C20.3153 2.04431 20.7286 3.04209 20.7286 4.08249V10.4774C20.265 10.6771 19.83 10.9652 19.4519 11.3447L18.5889 12.2077V5.86558H2.90193V16.2047C2.90193 17.189 3.70075 17.9878 4.68503 17.9878H12.8074L12.5635 18.2332C12.034 18.7625 11.6431 19.4141 11.4251 20.1304H4.68503C4.16963 20.1304 3.65929 20.0288 3.18317 19.8315C2.70704 19.6342 2.27447 19.345 1.91017 18.9804C1.54586 18.6158 1.25697 18.183 1.06 17.7068C0.863023 17.2305 0.761833 16.7201 0.762208 16.2047V4.08249ZM9.82606 8.51028C9.95998 8.37654 10.0353 8.19508 10.0354 8.00581C10.0356 7.81654 9.96051 7.63497 9.82677 7.50104C9.69303 7.36712 9.51157 7.2918 9.3223 7.29167C9.13303 7.29153 8.95146 7.36659 8.81754 7.50033L5.25134 11.0665C5.18492 11.1328 5.13222 11.2115 5.09626 11.2981C5.06031 11.3848 5.0418 11.4777 5.0418 11.5715C5.0418 11.6653 5.06031 11.7582 5.09626 11.8449C5.13222 11.9315 5.18492 12.0102 5.25134 12.0765L8.81754 15.6427C8.95146 15.7764 9.13303 15.8515 9.3223 15.8513C9.51157 15.8512 9.69303 15.7759 9.82677 15.642C9.96051 15.508 10.0356 15.3265 10.0354 15.1372C10.0353 14.9479 9.95998 14.7665 9.82606 14.6327L6.76483 11.5715L9.82606 8.51028ZM12.3823 15.6427C12.3159 15.5764 12.2632 15.4977 12.2272 15.4111C12.1913 15.3244 12.1728 15.2315 12.1728 15.1377C12.1728 15.0439 12.1913 14.951 12.2272 14.8643C12.2632 14.7777 12.3159 14.699 12.3823 14.6327L15.445 11.5715L12.3823 8.51028C12.2484 8.37635 12.1731 8.19471 12.1731 8.0053C12.1731 7.8159 12.2484 7.63426 12.3823 7.50033C12.5162 7.3664 12.6979 7.29116 12.8873 7.29116C13.0767 7.29116 13.2583 7.3664 13.3923 7.50033L16.9585 11.0665C17.0922 11.2003 17.1673 11.3817 17.1673 11.5708C17.1673 11.7599 17.0922 11.9413 16.9585 12.075L13.3923 15.6412C13.326 15.7077 13.2473 15.7604 13.1606 15.7963C13.074 15.8323 12.9811 15.8508 12.8873 15.8508C12.7935 15.8508 12.7006 15.8323 12.6139 15.7963C12.5273 15.7604 12.4486 15.7077 12.3823 15.6412V15.6427ZM20.4605 12.3532L13.5706 19.2431C13.1695 19.6446 12.885 20.1475 12.7475 20.6981L12.2126 22.835C12.1598 23.0475 12.1629 23.2701 12.2216 23.481C12.2803 23.692 12.3925 23.8842 12.5474 24.039C12.7023 24.1937 12.8946 24.3058 13.1057 24.3643C13.3167 24.4228 13.5392 24.4257 13.7517 24.3727L15.8886 23.8392C16.4392 23.7009 16.9428 23.417 17.3436 23.0147L24.2335 16.1248C24.7273 15.6232 25.0027 14.9467 24.9999 14.2428C24.997 13.5389 24.716 12.8647 24.2182 12.3671C23.7204 11.8694 23.0461 11.5887 22.3422 11.5861C21.6383 11.5835 20.9619 11.8593 20.4605 12.3532Z" fill="#D5963D"/>
</svg>
