<svg width="24" height="24" viewBox="0 0 24 24" fill="none" xmlns="http://www.w3.org/2000/svg">
<path fill-rule="evenodd" clip-rule="evenodd" d="M17.4744 14.3024C17.1864 14.1584 15.7744 13.4644 15.5115 13.3678C15.2486 13.2721 15.0572 13.2247 14.8649 13.5128C14.6735 13.7988 14.1236 14.4464 13.9564 14.6378C13.7882 14.8301 13.621 14.8533 13.334 14.7102C13.0469 14.5653 12.121 14.2628 11.0241 13.2847C10.1707 12.5231 9.59369 11.5827 9.42649 11.2947C9.25929 11.0076 9.40812 10.852 9.55213 10.709C9.68164 10.5804 9.83918 10.3736 9.98318 10.2064C10.1272 10.0382 10.1745 9.9184 10.2702 9.72607C10.3669 9.53471 10.3186 9.36751 10.2461 9.2235C10.1745 9.07949 9.60046 7.66552 9.36077 7.09046C9.12784 6.53087 8.89106 6.60722 8.71515 6.59756C8.54699 6.58983 8.35562 6.58789 8.16426 6.58789C7.97289 6.58789 7.66168 6.65941 7.3988 6.94742C7.13495 7.23447 6.39366 7.92937 6.39366 9.34334C6.39366 10.7563 7.422 12.122 7.566 12.3143C7.71001 12.5057 9.59079 15.4071 12.4719 16.6509C13.1581 16.9467 13.6926 17.1236 14.1091 17.255C14.7972 17.4744 15.4235 17.4435 15.9184 17.369C16.4693 17.2869 17.6175 16.6741 17.8571 16.0034C18.0959 15.3327 18.0959 14.7576 18.0243 14.6378C17.9528 14.5179 17.7615 14.4464 17.4734 14.3024H17.4744ZM12.2341 21.4573H12.2303C10.519 21.4576 8.83922 20.9976 7.36691 20.1255L7.01897 19.9186L3.40238 20.8677L4.3679 17.342L4.14078 16.9805C3.18409 15.4577 2.6778 13.6952 2.68042 11.8968C2.68235 6.62945 6.96775 2.34405 12.238 2.34405C14.7895 2.34405 17.1883 3.33953 18.9918 5.14493C19.8813 6.03079 20.5864 7.08425 21.0661 8.24435C21.5459 9.40445 21.7909 10.6482 21.7869 11.9036C21.7849 17.1709 17.4995 21.4573 12.2341 21.4573ZM20.3642 3.77349C19.2993 2.70158 18.0323 1.85166 16.6366 1.27299C15.2408 0.694324 13.7441 0.398404 12.2332 0.402383C5.89882 0.402383 0.741648 5.55858 0.739715 11.8958C0.738748 13.9216 1.26742 15.899 2.27353 17.6416L0.643066 23.598L6.73579 21.9995C8.42122 22.9178 10.3099 23.3989 12.2293 23.3989H12.2341C18.5685 23.3989 23.7256 18.2427 23.7276 11.9045C23.7322 10.3942 23.4374 8.89789 22.8601 7.50222C22.2828 6.10655 21.4345 4.8392 20.3642 3.77349Z" fill="#D5963D"/>
</svg>
