<svg width="27" height="28" viewBox="0 0 27 28" fill="none" xmlns="http://www.w3.org/2000/svg">
<path d="M25.6402 1.69643C25.3462 1.40227 24.9972 1.16892 24.613 1.00971C24.2289 0.850501 23.8171 0.768555 23.4013 0.768555C22.9854 0.768555 22.5736 0.850501 22.1895 1.00971C21.8053 1.16892 21.4563 1.40227 21.1624 1.69643L12.4624 10.3964C11.7407 11.1185 11.2288 12.0231 10.9813 13.0137L10.3645 15.4727C10.313 15.68 10.3159 15.8971 10.3732 16.1029C10.4304 16.3087 10.5399 16.4962 10.691 16.6471C10.8422 16.7981 11.0298 16.9073 11.2357 16.9643C11.4416 17.0212 11.6587 17.0239 11.8659 16.972L14.3209 16.3573C15.3114 16.1098 16.2161 15.5979 16.9382 14.8762L25.6422 6.17422C25.9363 5.88028 26.1697 5.53126 26.3289 5.1471C26.4881 4.76294 26.5701 4.35117 26.5701 3.93532C26.5701 3.51948 26.4881 3.10771 26.3289 2.72355C26.1697 2.33939 25.9363 1.99036 25.6422 1.69643H25.6402ZM17.1877 2.80218L15.1588 4.83108H4.0871C3.54901 4.83108 3.03295 5.04484 2.65245 5.42534C2.27196 5.80583 2.0582 6.32189 2.0582 6.85999V19.0273C2.0582 19.5654 2.27196 20.0815 2.65245 20.462C3.03295 20.8425 3.54901 21.0562 4.0871 21.0562H20.3183C20.8564 21.0562 21.3725 20.8425 21.753 20.462C22.1335 20.0815 22.3472 19.5654 22.3472 19.0273V12.338L24.3761 10.3091V19.0273C24.3761 20.1035 23.9486 21.1356 23.1876 21.8966C22.4267 22.6576 21.3945 23.0851 20.3183 23.0851H16.2666V25.1343H19.31C19.579 25.1343 19.837 25.2412 20.0273 25.4315C20.2175 25.6217 20.3244 25.8797 20.3244 26.1488C20.3244 26.4178 20.2175 26.6759 20.0273 26.8661C19.837 27.0564 19.579 27.1632 19.31 27.1632L5.11373 27.1653C4.84468 27.1653 4.58665 27.0584 4.3964 26.8681C4.20616 26.6779 4.09928 26.4199 4.09928 26.1508C4.09928 25.8818 4.20616 25.6237 4.3964 25.4335C4.58665 25.2432 4.84468 25.1364 5.11373 25.1364H8.15506V23.0872H4.0871C3.01091 23.0872 1.97879 22.6596 1.2178 21.8987C0.456815 21.1377 0.0292969 20.1056 0.0292969 19.0294V6.85999C0.0292969 5.78379 0.456815 4.75167 1.2178 3.99068C1.97879 3.2297 3.01091 2.80218 4.0871 2.80218H17.1877ZM14.2377 25.1364V23.0872H10.184V25.1364H14.2377ZM11.8639 16.972L11.6204 15.9901L11.8639 16.972Z" fill="#D5963D"/>
</svg>
